<?xml version="1.0" standalone="no"?>
<!DOCTYPE svg PUBLIC "-//W3C//DTD SVG 20010904//EN"
 "http://www.w3.org/TR/2001/REC-SVG-20010904/DTD/svg10.dtd">
<svg version="1.0" xmlns="http://www.w3.org/2000/svg"
 width="613.000000pt" height="682.000000pt" viewBox="0 0 613.000000 682.000000"
 preserveAspectRatio="xMidYMid meet">

<g transform="translate(0.000000,682.000000) scale(0.100000,-0.100000)"
fill="#000000" stroke="none">
<path d="M3255 5281 c-37 -15 -60 -51 -60 -92 0 -49 21 -71 112 -118 56 -30
68 -40 68 -61 0 -62 -109 -58 -146 5 -17 28 -24 33 -42 26 -15 -6 -21 -16 -19
-32 8 -72 145 -124 222 -84 36 19 50 43 50 90 0 44 -30 77 -97 106 -61 26 -83
46 -83 76 0 52 102 50 137 -3 17 -27 51 -32 60 -8 8 21 -25 63 -67 85 -36 20
-100 24 -135 10z"/>
<path d="M2685 5271 c-14 -6 -27 -31 -43 -86 l-23 -77 -62 55 c-52 45 -68 54
-90 50 -15 -3 -27 -8 -27 -12 0 -3 38 -44 84 -90 80 -80 84 -85 102 -157 18
-72 19 -75 44 -69 14 4 27 9 30 11 2 3 -4 35 -13 72 -22 87 -22 90 13 202 16
52 30 98 30 103 0 9 -19 8 -45 -2z"/>
<path d="M3623 5155 c-72 -44 -112 -154 -82 -232 23 -62 109 -123 174 -123 17
0 50 9 74 20 l44 20 -23 25 c-22 23 -24 23 -53 9 -62 -33 -150 12 -163 83 -9
46 20 117 58 144 61 44 146 20 177 -49 11 -25 21 -32 43 -32 36 0 36 19 3 76
-48 81 -167 110 -252 59z"/>
<path d="M2198 5097 c-54 -29 -100 -56 -104 -60 -3 -3 31 -78 77 -165 l83
-160 108 54 c59 30 108 58 108 62 0 5 -6 16 -13 26 -12 16 -18 15 -90 -24 -43
-23 -80 -41 -81 -39 -2 2 -13 23 -25 46 l-21 43 69 35 c79 39 86 47 71 75 -11
21 -13 20 -85 -19 -41 -23 -76 -41 -79 -41 -6 0 -46 75 -46 84 0 3 36 24 79
46 76 40 79 43 69 66 -6 13 -14 24 -17 24 -3 0 -50 -24 -103 -53z"/>
<path d="M3965 4881 c-55 -76 -100 -144 -100 -151 0 -7 9 -19 21 -27 20 -13
23 -10 59 42 l38 55 31 -20 c28 -18 31 -24 29 -67 -1 -27 -5 -64 -7 -83 -5
-32 -2 -38 24 -53 l29 -17 6 47 c14 114 14 113 43 113 84 1 140 103 94 172
-18 27 -144 128 -159 128 -4 -1 -53 -63 -108 -139z m173 29 c48 -36 59 -63 41
-96 -23 -44 -70 -40 -136 13 l-23 18 33 47 c17 26 34 48 38 48 3 0 24 -14 47
-30z"/>
<path d="M2902 4991 c-7 -4 -16 -33 -19 -64 -5 -53 -4 -57 15 -57 23 0 27 11
38 83 6 48 -2 59 -34 38z"/>
<path d="M1931 4929 c-26 -21 -28 -17 42 -99 l39 -45 -58 -52 c-33 -29 -62
-53 -66 -53 -4 0 -30 27 -59 60 l-52 60 -23 -21 -23 -22 102 -119 c56 -66 110
-129 119 -141 16 -21 17 -21 37 -3 12 11 21 23 21 27 0 4 -18 29 -40 54 -22
25 -40 50 -40 55 0 4 27 31 59 59 l59 51 49 -56 49 -55 25 19 24 20 -21 24
c-11 12 -63 73 -114 133 -51 61 -95 113 -99 117 -3 4 -17 -2 -30 -13z"/>
<path d="M4325 4677 c-109 -43 -157 -164 -105 -266 92 -180 361 -121 360 80
-1 136 -134 233 -255 186z m122 -64 c66 -31 94 -120 56 -183 -18 -32 -80 -70
-112 -70 -40 0 -90 28 -111 62 -40 66 -19 147 49 187 44 25 72 26 118 4z"/>
<path d="M1627 4283 c-86 -142 -94 -159 -80 -170 9 -7 20 -13 24 -13 4 0 50
71 103 157 72 119 93 160 84 170 -6 7 -16 13 -23 13 -7 0 -56 -71 -108 -157z"/>
<path d="M4565 4233 c-88 -41 -161 -76 -163 -77 -1 -2 19 -48 45 -104 34 -76
51 -102 65 -102 31 0 31 24 -1 95 -17 37 -29 71 -26 74 2 4 65 36 138 71 l134
62 -11 29 c-5 16 -13 29 -16 28 -3 0 -77 -34 -165 -76z"/>
<path d="M1285 4068 c-7 -35 -4 -41 44 -95 28 -31 48 -59 45 -62 -3 -3 -37
-15 -76 -26 -61 -17 -73 -24 -81 -48 -5 -16 -7 -30 -5 -32 2 -3 53 9 114 26
l109 31 78 -22 c43 -13 79 -21 82 -19 2 2 6 16 10 30 6 25 3 27 -71 49 -81 24
-86 28 -211 170 l-31 35 -7 -37z"/>
<path d="M4700 3938 c-91 -22 -169 -43 -173 -47 -4 -4 5 -57 19 -118 26 -104
29 -109 51 -105 27 5 28 17 8 92 -24 89 -30 82 125 120 77 19 144 37 149 40
10 6 3 60 -8 59 -3 0 -80 -19 -171 -41z"/>
<path d="M1180 3623 c0 -29 2 -30 53 -37 28 -3 67 -6 86 -6 33 0 34 0 27 -37
-3 -21 -6 -59 -6 -84 l0 -45 -85 4 -85 5 0 -31 c0 -29 3 -31 43 -36 23 -3 106
-8 185 -11 l142 -6 0 29 c0 36 -13 42 -86 42 l-54 0 0 86 0 86 75 -7 75 -7 0
36 0 36 -63 0 c-35 0 -119 3 -185 7 l-122 6 0 -30z"/>
<path d="M4592 3373 c3 -102 5 -112 31 -146 97 -128 292 -84 326 73 6 28 11
75 11 104 l0 53 -102 7 c-57 3 -141 9 -186 12 l-84 7 4 -110z m216 31 l92 -7
0 -44 c0 -84 -48 -133 -130 -133 -52 0 -95 25 -115 66 -15 33 -20 105 -8 117
8 9 45 9 161 1z"/>
<path d="M1423 3250 c-35 -14 -54 -54 -64 -131 -10 -80 -20 -99 -56 -99 -18 0
-28 9 -39 36 -16 39 -11 68 16 99 18 19 18 21 0 43 l-19 23 -21 -21 c-41 -41
-52 -113 -26 -173 20 -49 52 -72 98 -72 61 0 94 42 103 132 9 83 19 103 50
103 54 0 73 -87 30 -138 -25 -30 -25 -30 -6 -53 19 -23 20 -23 40 -5 32 29 55
99 46 143 -17 93 -82 141 -152 113z"/>
<path d="M4587 3029 c-103 -54 -130 -212 -50 -300 66 -73 175 -84 257 -26 36
26 76 110 76 162 0 45 -28 112 -56 137 -56 49 -161 62 -227 27z m160 -59 c75
-46 84 -148 18 -208 -35 -32 -41 -34 -93 -30 -48 4 -60 10 -89 41 -28 32 -33
44 -33 88 0 46 4 55 39 90 33 33 45 39 82 39 26 0 57 -8 76 -20z"/>
<path d="M1628 2809 c-16 -9 -14 -17 23 -90 22 -45 39 -82 37 -83 -31 -22 -79
-46 -85 -43 -5 3 -24 37 -43 76 -18 39 -37 71 -40 71 -3 0 -14 -6 -24 -13 -17
-13 -16 -17 18 -85 20 -39 36 -74 36 -77 0 -5 -75 -45 -84 -45 -3 0 -24 36
-46 80 -38 76 -42 80 -63 69 -12 -6 -23 -13 -24 -14 -6 -4 109 -215 117 -215
8 0 310 156 318 165 5 5 -108 215 -116 215 -4 0 -15 -5 -24 -11z"/>
<path d="M4347 2585 l-25 -32 88 -109 c49 -60 87 -110 86 -112 -2 -1 -61 22
-131 52 -119 52 -129 54 -142 38 -37 -47 -38 -44 77 -191 61 -77 115 -143 120
-146 5 -3 16 5 25 19 16 24 15 26 -70 132 -47 59 -84 109 -82 111 3 2 60 -21
128 -50 112 -50 126 -53 141 -40 38 34 32 49 -58 158 -47 58 -85 107 -83 109
2 2 62 -21 133 -52 l128 -55 19 24 c10 13 19 26 19 29 0 3 -19 13 -42 22 -24
9 -102 41 -174 71 l-131 54 -26 -32z"/>
<path d="M1755 2496 c-40 -18 -64 -47 -67 -78 -2 -20 -9 -28 -30 -32 -16 -3
-40 -17 -54 -32 -23 -22 -26 -32 -22 -69 4 -35 18 -58 68 -119 l62 -76 27 23
c15 12 77 65 139 117 61 52 112 97 112 100 0 17 -125 150 -154 164 -40 19 -42
19 -81 2z m115 -103 l41 -48 -43 -38 -42 -39 -38 44 c-48 55 -54 73 -34 103
27 42 67 34 116 -22z m-131 -110 l41 -46 -27 -29 c-15 -15 -32 -28 -37 -28
-19 1 -76 78 -76 104 0 24 22 45 47 46 6 0 30 -21 52 -47z"/>
<path d="M4048 2246 c-10 -7 -18 -16 -18 -20 0 -3 30 -47 66 -97 36 -50 64
-93 62 -95 -3 -2 -67 16 -143 40 -103 33 -143 42 -157 35 -10 -5 -18 -14 -18
-19 0 -16 202 -290 214 -290 6 0 19 7 29 15 18 13 15 19 -48 105 -37 50 -65
93 -62 96 3 3 66 -13 140 -36 112 -34 139 -40 157 -30 21 11 21 12 4 38 -45
69 -196 272 -202 272 -4 0 -15 -7 -24 -14z"/>
<path d="M2128 2025 c-45 -69 -86 -125 -92 -125 -6 0 -22 9 -36 20 -32 25 -42
25 -58 0 -11 -19 -5 -25 95 -90 l108 -70 18 22 c18 21 17 22 -22 47 -23 14
-41 29 -41 32 0 3 36 60 80 128 44 67 80 126 80 131 0 9 -32 30 -45 30 -3 0
-42 -56 -87 -125z"/>
<path d="M3547 1976 c-116 -40 -168 -111 -153 -209 13 -88 74 -148 158 -155
59 -5 198 31 198 51 0 7 -22 84 -49 172 -39 129 -52 160 -67 162 -11 1 -50 -9
-87 -21z m93 -158 c18 -62 34 -117 34 -123 2 -17 -96 -36 -130 -25 -118 39
-118 206 1 248 59 20 60 19 95 -100z"/>
<path d="M2531 1943 c-5 -21 -24 -94 -41 -163 -17 -69 -33 -132 -36 -141 -6
-20 47 -34 58 -16 4 6 17 52 29 102 12 49 25 96 29 103 4 8 30 -43 64 -126 44
-108 62 -141 79 -146 11 -3 22 -4 24 -3 5 6 92 351 89 354 -2 2 -16 5 -31 6
-28 2 -29 0 -56 -106 -15 -60 -29 -110 -31 -112 -2 -3 -28 55 -58 128 -29 72
-60 138 -68 145 -26 21 -41 14 -51 -25z"/>
<path d="M3020 1885 c-124 -56 -155 -222 -58 -312 71 -67 201 -69 271 -5 85
76 73 235 -23 298 -50 33 -139 42 -190 19z m154 -66 c101 -80 54 -239 -71
-239 -81 0 -133 51 -133 130 0 79 51 129 131 130 32 0 54 -6 73 -21z"/>
<path d="M2304 1772 c-44 -54 -48 -63 -33 -73 26 -16 37 -9 70 42 26 41 30 52
18 60 -20 13 -21 12 -55 -29z"/>
</g>
</svg>
